<svg xmlns="http://www.w3.org/2000/svg" viewBox="0 0 512 512">
  <!-- Extra bold appearance with thicker paths and strokes -->
  <path fill="#e76763" d="M256 215.25A40.75 40.75 0 1 0 296.75 256 40.785 40.785 0 0 0 256 215.25zm-78.489-68.95a22 22 0 0 0-31.213 0 150 150 0 0 0 0 217.4 22 22 0 1 0 31.213-31.213 106 106 0 0 1 0-154.979 22 22 0 0 0 0-31.208zm156.978 0a22 22 0 0 0 0 31.213 106 106 0 0 1 0 154.979A22 22 0 1 0 365.7 363.7a150 150 0 0 0 0-217.4 22 22 0 0 0-31.211 0z" stroke="#e76763" stroke-width="16"/>
  <path fill="#e76763" d="M94.265 73.052a22 22 0 0 0-31.213 0 255 255 0 0 0 0 365.9 22 22 0 0 0 31.213-31.213c-83.218-83.219-83.218-221.252 0-303.471a22 22 0 0 0 0-31.216zm343.683 0a22 22 0 1 0-31.213 31.213c83.218 83.219 83.218 221.252 0 303.471a22 22 0 1 0 31.213 31.213 255 255 0 0 0 0-365.9z" stroke="#e76763" stroke-width="16"/>
</svg>