<svg xmlns="http://www.w3.org/2000/svg" data-name="Layer 2" viewBox="0 0 512 512" id="signal"><path fill="#e76763" d="M256 225.25A30.75 30.75 0 1 0 286.75 256 30.785 30.785 0 0 0 256 225.25zm-78.489-68.95a15 15 0 0 0-21.213 0 141 141 0 0 0 0 199.4 15 15 0 1 0 21.213-21.213 111 111 0 0 1 0-156.979 15 15 0 0 0 0-21.208zm156.978 0a15 15 0 0 0 0 21.213 111 111 0 0 1 0 156.979A15 15 0 1 0 355.7 355.7a141 141 0 0 0 0-199.4 15 15 0 0 0-21.211 0z"></path><path fill="#e76763" d="M103.265 82.052a15 15 0 0 0-21.213 0 246 246 0 0 0 0 347.9 15 15 0 0 0 21.213-21.213c-84.218-84.219-84.218-221.252 0-305.471a15 15 0 0 0 0-21.216zm326.683 0a15 15 0 1 0-21.213 21.213c84.218 84.219 84.218 221.252 0 305.471a15 15 0 1 0 21.213 21.213 246 246 0 0 0 0-347.9z"></path></svg>